# xmcd CD database file
#
# Track frame offsets:
#	150
#	43405
#	86741
#	125460
#	149157
#	171632
#	194987
#	228151
#	253379
#
# Disc length: 3782 seconds
#
# Revision: 0
# Processed by: cddbd v1.4PL0 Copyright (c) Steve Scherf et al.
# Submitted via: CDex 1.50
#
DISCID=980ec409
DTITLE=Bruce Springsteen - Spring night - Carlo Felice, Genova
DYEAR=1996
DGENRE=Blues
TTITLE0=sinaloa cowboys
TTITLE1=the line
TTITLE2=balboa park
TTITLE3=across the border
TTITLE4=bobby jean
TTITLE5=this hard land
TTITLE6=no surrender
TTITLE7=galvestone bay
TTITLE8=the promised land
EXTD=YEAR: 1996
EXTT0=
EXTT1=
EXTT2=
EXTT3=
EXTT4=
EXTT5=
EXTT6=
EXTT7=
EXTT8=
PLAYORDER=
